<svg xmlns="http://www.w3.org/2000/svg" version="1.1" xmlns:xlink="http://www.w3.org/1999/xlink" width="512" height="512" x="0" y="0" viewBox="0 0 24 24" style="enable-background:new 0 0 512 512" xml:space="preserve" fill-rule="evenodd" class=""><g><path d="M22.75 11V4c0-.729-.29-1.429-.805-1.945A2.755 2.755 0 0 0 20 1.25H4c-.729 0-1.429.29-1.945.805A2.755 2.755 0 0 0 1.25 4v16c0 .729.29 1.429.805 1.945A2.755 2.755 0 0 0 4 22.75h7a.75.75 0 0 0 0-1.5H4A1.252 1.252 0 0 1 2.75 20V4A1.252 1.252 0 0 1 4 2.75h16A1.252 1.252 0 0 1 21.25 4v7a.75.75 0 0 0 1.5 0z" fill="#ffffff" opacity="1" data-original="#000000" class=""></path><path d="M2 7.75h20a.75.75 0 0 0 0-1.5H2a.75.75 0 0 0 0 1.5zM4.5 5.25h1a.75.75 0 0 0 0-1.5h-1a.75.75 0 0 0 0 1.5zM8 5.25h1a.75.75 0 0 0 0-1.5H8a.75.75 0 0 0 0 1.5zM11.5 5.25h1a.75.75 0 0 0 0-1.5h-1a.75.75 0 0 0 0 1.5zM17 13.25c-2.07 0-3.75 1.68-3.75 3.75s1.68 3.75 3.75 3.75 3.75-1.68 3.75-3.75-1.68-3.75-3.75-3.75zm0 1.5a2.25 2.25 0 1 1-.002 4.502A2.25 2.25 0 0 1 17 14.75z" fill="#ffffff" opacity="1" data-original="#000000" class=""></path><path d="M20 17.75h2a.75.75 0 0 0 0-1.5h-2a.75.75 0 0 0 0 1.5zM19.652 15.409l1.414-1.414a.75.75 0 1 0-1.061-1.061l-1.414 1.414a.75.75 0 1 0 1.061 1.061zM17.75 14v-2a.75.75 0 0 0-1.5 0v2a.75.75 0 0 0 1.5 0zM15.409 14.348l-1.414-1.414a.75.75 0 1 0-1.061 1.061l1.414 1.414a.75.75 0 1 0 1.061-1.061zM14 16.25h-2a.75.75 0 0 0 0 1.5h2a.75.75 0 0 0 0-1.5zM14.348 18.591l-1.414 1.414a.75.75 0 1 0 1.061 1.061l1.414-1.414a.75.75 0 1 0-1.061-1.061zM16.25 20v2a.75.75 0 0 0 1.5 0v-2a.75.75 0 0 0-1.5 0zM18.591 19.652l1.414 1.414a.75.75 0 1 0 1.061-1.061l-1.414-1.414a.75.75 0 1 0-1.061 1.061z" fill="#ffffff" opacity="1" data-original="#000000" class=""></path></g></svg>