<svg xmlns="http://www.w3.org/2000/svg" version="1.1" xmlns:xlink="http://www.w3.org/1999/xlink" width="512" height="512" x="0" y="0" viewBox="0 0 24 24" style="enable-background:new 0 0 512 512" xml:space="preserve" class=""><g><path d="M18 14a3.974 3.974 0 0 0-3 1.382l-5.091-2.546a3.884 3.884 0 0 0 0-1.672L15 8.618a3.943 3.943 0 1 0-.91-1.782L9 9.382a4 4 0 1 0 0 5.236l5.091 2.546A3.998 3.998 0 1 0 18 14zm0-10a2 2 0 1 1-2 2 2.002 2.002 0 0 1 2-2zM6 14a2 2 0 1 1 2-2 2.002 2.002 0 0 1-2 2zm12 6a2 2 0 1 1 2-2 2.002 2.002 0 0 1-2 2z" fill="#ffffff" opacity="1" data-original="#000000"></path></g></svg>