<svg xmlns="http://www.w3.org/2000/svg" version="1.1" xmlns:xlink="http://www.w3.org/1999/xlink" width="512" height="512" x="0" y="0" viewBox="0 0 512 512" style="enable-background:new 0 0 512 512" xml:space="preserve" class=""><g><path d="m439.262 358.436-60.131-60.14 11.867-8.622A32.956 32.956 0 0 0 403 252.736l-8.104-24.939a12.963 12.963 0 0 1 0-8.058l8.104-24.94a32.953 32.953 0 0 0-12.002-36.937l-21.215-15.415a12.942 12.942 0 0 1-4.736-6.519l-8.104-24.94a32.956 32.956 0 0 0-31.42-22.829h-26.225c-2.771 0-5.421-.861-7.663-2.49L270.42 70.255a32.96 32.96 0 0 0-38.839 0L210.365 85.67a12.956 12.956 0 0 1-7.663 2.49h-26.224a32.956 32.956 0 0 0-31.421 22.829l-8.104 24.941a12.964 12.964 0 0 1-4.736 6.518l-21.215 15.414A32.956 32.956 0 0 0 99 194.799l8.104 24.94a12.96 12.96 0 0 1 0 8.057L99 252.737a32.955 32.955 0 0 0 12.002 36.937l11.867 8.622-60.131 60.139a10 10 0 0 0 3.429 16.383l48.295 18.896 18.896 48.295a10 10 0 0 0 16.384 3.428l73.92-73.911 7.919 5.754A32.987 32.987 0 0 0 251 383.608a32.981 32.981 0 0 0 19.419-6.329l7.92-5.754 73.921 73.912a9.998 9.998 0 0 0 16.383-3.428l18.896-48.295 48.295-18.896a10 10 0 0 0 3.428-16.382zm-292.85 62.048-14.919-38.131a9.999 9.999 0 0 0-5.669-5.669l-38.131-14.919 49.479-49.487 7.886 24.269a32.955 32.955 0 0 0 31.421 22.829h26.224c1.428 0 2.823.233 4.147.677zm96.924-59.384-21.215-15.415a32.837 32.837 0 0 0-19.418-6.309h-26.224a13.003 13.003 0 0 1-12.399-9.009l-8.104-24.939c-2.073-6.382-5.971-11.864-11.269-15.942a9.67 9.67 0 0 0-.56-.441c-.059-.044-.113-.093-.173-.136l-21.215-15.415a13.005 13.005 0 0 1-4.736-14.576l8.104-24.94a32.833 32.833 0 0 0 0-20.418l-8.104-24.939a13.008 13.008 0 0 1 4.736-14.578l21.215-15.414a32.83 32.83 0 0 0 12.002-16.518l8.104-24.94a13.004 13.004 0 0 1 12.399-9.009h26.224a32.83 32.83 0 0 0 19.419-6.31l21.214-15.413a13.006 13.006 0 0 1 15.328 0l21.215 15.415a32.832 32.832 0 0 0 19.419 6.31h26.225a13.005 13.005 0 0 1 12.398 9.009l8.104 24.939a32.819 32.819 0 0 0 12.002 16.519l21.216 15.415a13.006 13.006 0 0 1 4.735 14.577l-8.104 24.941a32.845 32.845 0 0 0 0 20.417l8.104 24.94a13.005 13.005 0 0 1-4.736 14.577l-21.214 15.413c-.074.054-.141.115-.215.169-.169.126-.336.255-.499.393-5.308 4.079-9.213 9.567-11.289 15.956l-8.104 24.941a13.004 13.004 0 0 1-12.398 9.009h-26.225a32.839 32.839 0 0 0-19.419 6.31l-21.214 15.413a13.014 13.014 0 0 1-15.329-.002zm132.841 15.584a10.002 10.002 0 0 0-5.669 5.669l-14.919 38.131-60.439-60.43a12.993 12.993 0 0 1 4.147-.677h26.225a32.956 32.956 0 0 0 31.42-22.828l7.886-24.271 49.481 49.488z" fill="#ffffff" opacity="1" data-original="#000000"></path><path d="M297.248 297.938a10.001 10.001 0 0 0 9.858-11.69l-7.944-46.317 33.651-32.802a10 10 0 0 0-5.542-17.057l-46.506-6.758-20.797-42.141a10.001 10.001 0 0 0-17.935 0l-20.797 42.141-46.505 6.758a10.001 10.001 0 0 0-5.542 17.057l33.651 32.802-7.944 46.317a10.001 10.001 0 0 0 14.509 10.542L251 274.922l41.596 21.867a9.99 9.99 0 0 0 4.652 1.149zm-41.595-43.165a10.002 10.002 0 0 0-9.306 0l-28.314 14.886 5.408-31.529a10 10 0 0 0-2.876-8.852l-22.906-22.328 31.656-4.601a9.998 9.998 0 0 0 7.529-5.47L251 168.195l14.156 28.685a10 10 0 0 0 7.529 5.47l31.657 4.601-22.907 22.328a10.003 10.003 0 0 0-2.876 8.852l5.408 31.529z" fill="#ffffff" opacity="1" data-original="#000000"></path></g></svg>