<svg xmlns="http://www.w3.org/2000/svg" version="1.1" xmlns:xlink="http://www.w3.org/1999/xlink" width="512" height="512" x="0" y="0" viewBox="0 0 24 24" style="enable-background:new 0 0 512 512" xml:space="preserve"><g><path fill="#ffffff" fill-rule="evenodd" d="M3.634 13.783a2.231 2.231 0 0 0-.6 1.093l-.98 4.407C1.7 20.877 3.124 22.3 4.718 21.945l4.407-.979a2.24 2.24 0 0 0 1.093-.6l11.13-11.13a2.231 2.231 0 0 0 0-3.155l-3.428-3.427a2.231 2.231 0 0 0-3.156 0zm6.053 4.992L20.286 8.176a.732.732 0 0 0 0-1.034l-3.428-3.428a.732.732 0 0 0-1.034 0L5.225 14.313zm-5.28-3.16-.888 3.993a.732.732 0 0 0 .873.873l3.993-.887z" clip-rule="evenodd" opacity="1" data-original="#000000"></path></g></svg>