<svg xmlns="http://www.w3.org/2000/svg" version="1.1" xmlns:xlink="http://www.w3.org/1999/xlink" width="512" height="512" x="0" y="0" viewBox="0 0 512 512" style="enable-background:new 0 0 512 512" xml:space="preserve" class=""><g><path d="M415.851 208c-.004-4.158-1.479-8.254-4.538-11.313l-128-128c-3.059-3.069-7.154-4.558-11.313-4.558V64h-96c-44.109 0-80 35.891-80 80v224c0 44.109 35.891 80 80 80h160c44.109 0 80-35.891 80-80V208zM288 118.625 361.375 192H336c-26.469 0-48-21.531-48-48zM336 416H176c-26.469 0-48-21.531-48-48V144c0-26.469 21.531-48 48-48h80v48c0 44.109 35.891 80 80 80h48v144c0 26.469-21.531 48-48 48zm0-64c0 8.844-7.164 16-16 16H192c-8.836 0-16-7.156-16-16s7.164-16 16-16h128c8.836 0 16 7.156 16 16zm0-64c0 8.844-7.164 16-16 16H192c-8.836 0-16-7.156-16-16s7.164-16 16-16h128c8.836 0 16 7.156 16 16zm-160-64c0-8.844 7.164-16 16-16h32c8.836 0 16 7.156 16 16s-7.164 16-16 16h-32c-8.836 0-16-7.156-16-16z" fill="#747474" opacity="1" data-original="#000000" class=""></path></g></svg>