<svg id="fi_18290728" enable-background="new 0 0 100 100" viewBox="0 0 100 100" xmlns="http://www.w3.org/2000/svg" xmlns:xlink="http://www.w3.org/1999/xlink"><linearGradient id="lg1"><stop offset="0" stop-color="#97e0ff"></stop><stop offset="1" stop-color="#1075ff"></stop></linearGradient><linearGradient id="SVGID_1_" gradientUnits="userSpaceOnUse" x1="1.467" x2="93.484" xlink:href="#lg1" y1="-6.236" y2="94.604"></linearGradient><linearGradient id="SVGID_00000023281754306255363630000001611935792897281465_" gradientUnits="userSpaceOnUse" x1="-.185" x2="91.832" xlink:href="#lg1" y1="-4.729" y2="96.112"></linearGradient><path d="m43.804039 2.5c-20.7999992 0-37.7000017 16.8000011-37.7000017 37.7000008 0 20.7999992 16.9000025 37.7000007 37.7000017 37.7000007s37.7000046-16.7999992 37.7000046-37.7000008-16.8000031-37.7000007-37.7000046-37.7000007zm0 64c-14.4000015 0-26.2000008-11.7999992-26.2000008-26.2000008s11.6999989-26.2999992 26.2000008-26.2999992c14.5999985 0 26.2000046 11.6999989 26.2000046 26.2000008 0 14.4000015-11.8000031 26.2999992-26.2000046 26.2999992z" fill="url(#SVGID_1_)"></path><path d="m87.1040344 97.5c-1.6999969 0-3.5999985-.7000046-4.8999939-2.0999985l-22.6000061-24.5c-2.5999985-2.6999969-2.3999977-6.8999939.4000015-9.4999962 2.7000008-2.5 6.9000015-2.4000015 9.5.3999977l22.5999985 24.5000076c2.5 2.6999969 2.4000092 6.9000015-.4000015 9.5-1.2999878.9999848-2.8999939 1.6999894-4.5999985 1.6999894z" fill="url(#SVGID_00000023281754306255363630000001611935792897281465_)"></path></svg>